# xmcd
#
# Track frame offsets: 
#        182
#        17967
#        31185
#        46075
#        61855
#        74745
#        91107
#        107547
#        123837
#        138455
#        154115
#        170172
#        185752
#        196105
#        214282
#        227610
#        241630
#        254035
#        270502
#        285307
#
# Disc length: 4007 seconds
#
# Revision: 1
# Processed by: cddbd v1.5.2PL0 Copyright (c) Steve Scherf et al.
# Submitted via: ExactAudioCopy v0.99pb4
#
DISCID=170fa514
DTITLE=Various Artist - Country Romance Disc 1
DYEAR=1990
DGENRE=Country
TTITLE0=Dan Seals And Marie Osmond - Meet Me In Montana
TTITLE1=George Strait - Let's Fall To Pieces Together
TTITLE2=Dolly Parton - But You Know I Love You
TTITLE3=Steve Wariner - All Roads Lead To You
TTITLE4=Loretta Lynn And Conway Twitty - I Can't Love You Enough
TTITLE5=Don Williams - That's The Thing About Love
TTITLE6=Emmylou Harris - Save The Last Dance For Me
TTITLE7=Glen Campbell - A Lady Like You
TTITLE8=Barbara Mandrell And Lee Greenwood - To Me
TTITLE9=Nitty Gritty Dirt Band - I Love Only You
TTITLE10=Gary Morris - The Love She Found In Me
TTITLE11=Crystal Gayle - A Long And Lasting Love
TTITLE12=Gail Davies - I'll Be There (If You Ever Want Me)
TTITLE13=Eddie Rabbitt - I Just Want To Love You
TTITLE14=Hank Williams Jr. - I'm For Love
TTITLE15=Forester Sisters - (That's What You Do) When You're In Love
TTITLE16=Johnny Lee - One In A Million
TTITLE17=Debby Boone - You Light Up My Life
TTITLE18=T.G. Sheppard - Only One You
TTITLE19=Bellamy Brothers - I Need More Of You
EXTD=
EXTT0=
EXTT1=
EXTT2=
EXTT3=
EXTT4=
EXTT5=
EXTT6=
EXTT7=
EXTT8=
EXTT9=
EXTT10=
EXTT11=
EXTT12=
EXTT13=
EXTT14=
EXTT15=
EXTT16=
EXTT17=
EXTT18=
EXTT19=
PLAYORDER=
